<?xml version="1.0" standalone="no"?>
<!DOCTYPE svg PUBLIC "-//W3C//DTD SVG 20010904//EN"
 "http://www.w3.org/TR/2001/REC-SVG-20010904/DTD/svg10.dtd">
<svg version="1.0" xmlns="http://www.w3.org/2000/svg"
 width="546.000000pt" height="546.000000pt" viewBox="0 0 546.000000 546.000000"
 preserveAspectRatio="xMidYMid meet">
<metadata>
Created by potrace 1.14, written by Peter Selinger 2001-2017
</metadata>
<g transform="translate(0.000000,546.000000) scale(0.100000,-0.100000)"
fill="#000000" stroke="none">
<path d="M0 2730 l0 -2730 2730 0 2730 0 0 2730 0 2730 -2730 0 -2730 0 0
-2730z m2190 1190 c63 -85 161 -177 215 -201 66 -30 150 -25 331 22 149 38
166 40 264 36 67 -3 130 -13 175 -27 263 -82 456 -317 481 -585 7 -81 -10
-164 -52 -247 l-27 -53 -21 65 c-11 36 -34 88 -50 115 -62 106 -223 238 -395
325 -87 43 -275 105 -396 129 -117 23 -315 35 -365 22 -33 -8 -32 -9 22 -10
32 -1 113 -13 180 -27 470 -99 826 -330 928 -601 41 -111 46 -331 9 -454 -12
-38 -14 -39 -57 -39 -51 0 -50 -9 -10 130 14 47 28 104 31 126 l5 41 -43 -12
c-119 -36 -346 -37 -510 -1 -368 79 -710 341 -860 658 -58 122 -78 214 -78
363 -1 144 16 224 74 354 l31 69 34 -65 c18 -36 56 -96 84 -133z m-295 -2059
l110 -185 3 187 2 187 55 0 55 0 0 -285 0 -285 -64 0 -65 0 -113 188 -113 187
-3 -187 -2 -188 -55 0 -55 0 0 278 c0 153 3 282 7 286 4 4 34 6 67 4 l60 -3
111 -184z m620 168 c17 -5 40 -17 53 -27 l22 -17 -39 -39 c-37 -36 -41 -38
-72 -27 -52 18 -87 14 -104 -13 -20 -30 -5 -73 27 -80 99 -20 131 -31 153 -48
73 -57 77 -188 8 -250 -26 -24 -87 -48 -121 -48 -45 0 -124 27 -157 54 l-30
25 39 39 38 40 34 -20 c40 -23 95 -28 118 -9 23 19 20 68 -4 81 -12 6 -47 15
-78 20 -70 12 -100 33 -130 91 -31 58 -26 124 12 173 52 69 128 87 231 55z
m570 -39 l0 -55 -112 -3 -113 -3 0 -54 0 -55 115 0 115 0 0 -55 0 -55 -115 0
-115 0 0 -55 0 -54 113 -3 112 -3 0 -55 0 -55 -170 0 -170 0 -3 270 c-1 148 0
276 3 283 3 10 43 12 172 10 l168 -3 0 -55z m266 43 c8 -9 60 -93 116 -187
l103 -171 0 188 0 187 55 0 55 0 0 -285 0 -285 -64 0 -64 0 -108 182 -109 182
-3 -182 -2 -182 -60 0 -60 0 0 278 c0 153 3 282 7 285 3 4 32 7 63 7 41 0 61
-5 71 -17z m736 -9 c67 -24 73 -39 32 -80 -35 -35 -35 -35 -82 -22 -62 16
-101 3 -105 -36 -5 -40 21 -62 80 -70 65 -9 100 -27 132 -68 90 -119 -17 -285
-170 -264 -45 6 -137 47 -149 67 -4 6 10 28 31 50 28 29 41 36 50 28 7 -6 34
-17 60 -25 42 -12 50 -12 71 1 16 11 23 25 23 46 0 25 -6 32 -35 45 -19 7 -46
14 -61 14 -70 0 -137 66 -150 147 -5 32 -1 52 16 87 46 95 135 123 257 80z
m333 -161 c0 -210 5 -228 62 -256 32 -16 40 -16 70 -4 61 26 63 31 68 246 l5
196 55 0 55 0 3 -170 c4 -212 -5 -262 -60 -321 -79 -85 -204 -95 -292 -22 -69
56 -76 85 -76 316 l0 202 55 0 55 0 0 -187z m750 146 l41 -23 -40 -39 c-37
-38 -41 -39 -71 -28 -68 23 -120 4 -120 -45 0 -29 31 -50 90 -59 72 -12 115
-39 139 -88 27 -56 27 -103 -2 -157 -32 -61 -93 -94 -164 -87 -52 5 -121 32
-158 60 -20 15 -19 16 19 56 l38 39 37 -18 c64 -32 89 -33 116 -6 30 30 30 37
7 65 -12 16 -34 24 -75 30 -98 13 -157 76 -157 166 0 144 158 214 300 134z
m-4380 8 c19 -10 44 -24 54 -32 19 -15 19 -16 -19 -54 l-38 -40 -38 20 c-84
42 -188 9 -228 -74 -12 -24 -21 -56 -21 -70 0 -33 24 -94 48 -120 47 -52 144
-65 206 -29 l34 20 38 -40 c38 -39 39 -40 19 -55 -83 -64 -212 -77 -301 -31
-56 29 -93 68 -127 132 -31 58 -31 184 0 242 29 55 79 102 138 131 42 20 62
23 125 21 45 -2 89 -11 110 -21z m565 -1 c214 -99 221 -394 11 -504 -73 -38
-179 -38 -252 0 -162 85 -203 285 -89 434 14 18 53 46 86 63 81 40 168 43 244
7z"/>
<path d="M1155 1907 c-47 -26 -85 -92 -85 -147 0 -47 27 -97 73 -134 33 -26
47 -31 96 -31 48 0 64 5 96 29 41 31 74 94 75 140 0 16 -9 49 -21 73 -41 85
-149 118 -234 70z"/>
</g>
</svg>
